<svg width="71" height="97" viewBox="0 0 71 97" fill="none" xmlns="http://www.w3.org/2000/svg">
<path d="M70.0256 26.4768V90.4591C70.0256 93.8962 67.2306 96.6912 63.7935 96.6912H6.23205C2.79498 96.6912 0 93.8962 0 90.4591V6.23205C0 2.79498 2.79498 0 6.23205 0H43.5488L70.0256 26.4768Z" fill="#518FF5"/>
<path d="M17.1094 48.5547H52.9153V52.5394H17.1094V48.5547Z" fill="white"/>
<path d="M17.1094 57.4297H52.9153V61.4144H17.1094V57.4297Z" fill="white"/>
<path d="M17.1094 66.3242H52.9153V70.3089H17.1094V66.3242Z" fill="white"/>
<path d="M17.1094 75.2031H42.5852V79.1879H17.1094V75.2031Z" fill="white"/>
<path opacity="0.19" d="M47.1562 25.4762L70.026 44.0024V26.5904L57.0709 19.0742L47.1562 25.4762Z" fill="#13111A"/>
<path d="M70.0256 26.4768H49.7809C46.3438 26.4768 43.5488 23.6818 43.5488 20.2447V0L70.0256 26.4768Z" fill="#A6C5FA"/>
</svg>
