<svg width="1142" height="486" viewBox="0 0 1142 486" fill="none" xmlns="http://www.w3.org/2000/svg">
<mask id="mask0_4505_163" style="mask-type:alpha" maskUnits="userSpaceOnUse" x="-249" y="-490" width="1360" height="1329">
<g opacity="0.15">
<line x1="135.842" y1="-489.423" x2="-248.132" y2="516.804" stroke="#724FE5"/>
<line x1="195.975" y1="-466.476" x2="-187.999" y2="539.751" stroke="#724FE5"/>
<line x1="256.108" y1="-443.529" x2="-127.867" y2="562.698" stroke="#724FE5"/>
<line x1="316.241" y1="-420.582" x2="-67.7337" y2="585.646" stroke="#724FE5"/>
<line x1="376.375" y1="-397.636" x2="-7.59897" y2="608.591" stroke="#724FE5"/>
<line x1="436.508" y1="-374.689" x2="52.5338" y2="631.538" stroke="#724FE5"/>
<line x1="496.641" y1="-351.742" x2="112.667" y2="654.485" stroke="#724FE5"/>
<line x1="556.774" y1="-328.796" x2="172.799" y2="677.431" stroke="#724FE5"/>
<line x1="616.907" y1="-305.849" x2="232.932" y2="700.378" stroke="#724FE5"/>
<line x1="677.039" y1="-282.902" x2="293.065" y2="723.325" stroke="#724FE5"/>
<line x1="737.172" y1="-259.957" x2="353.198" y2="746.271" stroke="#724FE5"/>
<line x1="797.305" y1="-237.009" x2="413.331" y2="769.218" stroke="#724FE5"/>
<line x1="857.438" y1="-214.062" x2="473.464" y2="792.165" stroke="#724FE5"/>
<line x1="917.573" y1="-191.115" x2="533.598" y2="815.112" stroke="#724FE5"/>
<line x1="977.705" y1="-168.169" x2="593.731" y2="838.058" stroke="#724FE5"/>
<line x1="-217.06" y1="433.978" x2="789.167" y2="817.953" stroke="#724FE5"/>
<line x1="-194.115" y1="373.845" x2="812.112" y2="757.82" stroke="#724FE5"/>
<line x1="-171.167" y1="313.713" x2="835.059" y2="697.687" stroke="#724FE5"/>
<line x1="-148.22" y1="253.58" x2="858.007" y2="637.554" stroke="#724FE5"/>
<line x1="-125.275" y1="193.445" x2="880.952" y2="577.419" stroke="#724FE5"/>
<line x1="-102.328" y1="133.312" x2="903.899" y2="517.286" stroke="#724FE5"/>
<line x1="-79.3823" y1="73.1793" x2="926.845" y2="457.154" stroke="#724FE5"/>
<line x1="-56.435" y1="13.0465" x2="949.792" y2="397.021" stroke="#724FE5"/>
<line x1="-33.4878" y1="-47.0858" x2="972.739" y2="336.888" stroke="#724FE5"/>
<line x1="-10.5405" y1="-107.219" x2="995.687" y2="276.755" stroke="#724FE5"/>
<line x1="12.4068" y1="-167.354" x2="1018.63" y2="216.62" stroke="#724FE5"/>
<line x1="35.3521" y1="-227.485" x2="1041.58" y2="156.49" stroke="#724FE5"/>
<line x1="58.2994" y1="-287.619" x2="1064.53" y2="96.3548" stroke="#724FE5"/>
<line x1="81.2447" y1="-347.752" x2="1087.47" y2="36.222" stroke="#724FE5"/>
</g>
</mask>
<g mask="url(#mask0_4505_163)">
<rect x="112.033" y="-511.727" width="1138.54" height="1116" transform="rotate(20.8868 112.033 -511.727)" fill="url(#paint0_radial_4505_163)"/>
</g>
<defs>
<radialGradient id="paint0_radial_4505_163" cx="0" cy="0" r="1" gradientUnits="userSpaceOnUse" gradientTransform="translate(681.305 46.2721) rotate(90) scale(557.999 569.271)">
<stop stop-color="#724FE5"/>
<stop offset="1" stop-color="#724FE5" stop-opacity="0"/>
</radialGradient>
</defs>
</svg>
